<svg width="40" height="41" viewBox="0 0 40 41" fill="none" xmlns="http://www.w3.org/2000/svg">
<path d="M40 20.5C40 9.44118 31.0588 0.5 20 0.5C8.94118 0.5 0 9.44118 0 20.5C0 31.5588 8.94118 40.5 20 40.5C31.0588 40.5 40 31.5588 40 20.5ZM2.35294 20.5C2.35294 10.7353 10.2353 2.85294 20 2.85294C29.7647 2.85294 37.6471 10.7353 37.6471 20.5C37.6471 30.2647 29.7647 38.1471 20 38.1471C10.2353 38.1471 2.35294 30.2647 2.35294 20.5Z" fill="#DCBB87"/>
<path d="M26.3924 30.8433L16.6276 21.0786L26.3924 11.3139L24.7453 9.66687L13.3335 21.0786L24.7453 32.4904L26.3924 30.8433Z" fill="#DCBB87"/>
</svg>
