<svg width="40" height="41" viewBox="0 0 40 41" fill="none" xmlns="http://www.w3.org/2000/svg">
<path d="M0 20.5C0 9.44118 8.94118 0.5 20 0.5C31.0588 0.5 40 9.44118 40 20.5C40 31.5588 31.0588 40.5 20 40.5C8.94118 40.5 0 31.5588 0 20.5ZM37.6471 20.5C37.6471 10.7353 29.7647 2.85294 20 2.85294C10.2353 2.85294 2.35294 10.7353 2.35294 20.5C2.35294 30.2647 10.2353 38.1471 20 38.1471C29.7647 38.1471 37.6471 30.2647 37.6471 20.5Z" fill="#DCBB87"/>
<path d="M13.6076 30.8433L23.3723 21.0786L13.6076 11.3139L15.2547 9.66687L26.6664 21.0786L15.2547 32.4904L13.6076 30.8433Z" fill="#DCBB87"/>
</svg>
